<svg viewBox="0 0 1440 116" fill="none" xmlns="http://www.w3.org/2000/svg">
<path d="M0 23.9496L80 46.9352C160 70.3525 320 115.676 480 116C640 115.676 800 70.3525 960 58.482C1120 46.6115 1280 70.3525 1360 81.4676L1440 93.0144V11H1360C1280 11 1120 11 960 11C800 11 640 11 480 11C320 11 160 11 80 11H0V23.9496Z" fill="#00EFEE"/>
<path d="M0 11.9679L80 33.211C160 54.853 320 96.7408 480 97.04C640 96.7408 800 54.853 960 43.8824C1120 32.9118 1280 54.8531 1360 65.1255L1440 75.7969V0H1360C1280 0 1120 0 960 0C800 0 640 0 480 0C320 0 160 0 80 0H0V11.9679Z" fill="#022F95"/>
</svg>
