<svg width="500" height="500" viewBox="0 0 500 500" fill="none" xmlns="http://www.w3.org/2000/svg">
<path d="M0 388.812V24.9519C0 11.1447 11.1929 0 25 0H211.225C223.85 0 234.493 9.41259 236.037 21.9426L280.856 385.668C282.693 400.575 271.064 413.725 256.044 413.725H25C11.1929 413.725 0 402.619 0 388.812Z" fill="#0291C9"/>
<path d="M302.613 433.549L252.635 482.883C246.272 489.164 250.719 500 259.66 500H475C488.807 500 500 488.807 500 475V112.255C500 98.4478 488.807 87.2549 475 87.2549H300.579C285.644 87.2549 274.041 100.265 275.742 115.103L309.888 412.909C310.763 420.542 308.081 428.153 302.613 433.549Z" fill="#0072EE"/>
<path d="M257.542 451.648L217.91 493.962C214.629 497.465 209.271 498.207 205.412 495.352C192.3 485.655 186.293 475.362 184.708 453.821C184.341 448.835 187.995 444.517 192.933 443.737L248.684 434.934C258.087 433.45 264.05 444.7 257.542 451.648Z" fill="#0072EE"/>
<path d="M172.486 287.529L159.486 249.729H105.686L92.886 287.529H65.686L118.086 144.129H147.286L199.686 287.529H172.486ZM140.486 190.929C139.953 189.063 139.153 186.529 138.086 183.329C137.019 180.129 135.953 176.863 134.886 173.529C133.953 170.063 133.219 167.196 132.686 164.929C132.019 167.596 131.153 170.663 130.086 174.129C129.153 177.596 128.219 180.863 127.286 183.929C126.486 186.996 125.819 189.329 125.286 190.929L112.686 227.729H152.886L140.486 190.929Z" fill="#FAFAFA"/>
<path d="M399.616 232.992C414.282 232.992 425.482 236.192 433.216 242.592C441.082 248.859 445.016 258.525 445.016 271.592V344.392H424.216L418.416 329.592H417.616C414.549 333.459 411.349 336.659 408.016 339.192C404.816 341.725 401.082 343.525 396.816 344.592C392.682 345.792 387.549 346.392 381.416 346.392C375.016 346.392 369.216 345.192 364.016 342.792C358.949 340.259 354.949 336.459 352.016 331.392C349.082 326.192 347.616 319.659 347.616 311.792C347.616 300.192 351.682 291.659 359.816 286.192C367.949 280.592 380.149 277.525 396.416 276.992L415.416 276.392V271.592C415.416 265.859 413.882 261.659 410.816 258.992C407.882 256.325 403.749 254.992 398.416 254.992C393.082 254.992 387.882 255.792 382.816 257.392C377.749 258.859 372.682 260.725 367.616 262.992L357.816 242.792C363.682 239.725 370.149 237.325 377.216 235.592C384.416 233.859 391.882 232.992 399.616 232.992ZM403.816 294.192C394.216 294.459 387.549 296.192 383.816 299.392C380.082 302.592 378.216 306.792 378.216 311.992C378.216 316.525 379.549 319.792 382.216 321.792C384.882 323.659 388.349 324.592 392.616 324.592C399.016 324.592 404.416 322.725 408.816 318.992C413.216 315.125 415.416 309.725 415.416 302.792V293.792L403.816 294.192Z" fill="#FAFAFA"/>
</svg>
