<svg width="416" height="435" viewBox="0 0 416 435" fill="none" xmlns="http://www.w3.org/2000/svg">
<path d="M2 80.2415C2 73.7828 4.68161 67.7518 9.70854 63.9507C32.6592 46.5965 101.957 2 208 2C314.043 2 383.341 46.5965 406.291 63.9507C411.318 67.7518 414 73.7828 414 80.2415V345.309C414 355.116 407.781 363.845 398.512 367.048L215.512 430.288C210.645 431.97 205.355 431.97 200.488 430.288L17.4877 367.048C8.21851 363.845 2 355.116 2 345.309V80.2415Z" stroke="#102060" stroke-width="4"/>
<g filter="url(#filter0_i_470_2)">
<path d="M14 89.4599C14 82.4582 16.9035 75.8109 22.5032 71.6077C44.6313 54.998 109.206 14 207.5 14C305.794 14 370.369 54.9979 392.497 71.6077C398.096 75.8109 401 82.4582 401 89.4599V334.272C401 344.929 394.244 354.415 384.171 357.899L215.671 416.174C210.378 418.005 204.622 418.005 199.329 416.174L30.8286 357.899C20.7564 354.415 14 344.929 14 334.272V89.4599Z" fill="#102060"/>
</g>
<defs>
<filter id="filter0_i_470_2" x="14" y="14" width="397" height="413.548" filterUnits="userSpaceOnUse" color-interpolation-filters="sRGB">
<feFlood flood-opacity="0" result="BackgroundImageFix"/>
<feBlend mode="normal" in="SourceGraphic" in2="BackgroundImageFix" result="shape"/>
<feColorMatrix in="SourceAlpha" type="matrix" values="0 0 0 0 0 0 0 0 0 0 0 0 0 0 0 0 0 0 127 0" result="hardAlpha"/>
<feOffset dx="10" dy="10"/>
<feGaussianBlur stdDeviation="25"/>
<feComposite in2="hardAlpha" operator="arithmetic" k2="-1" k3="1"/>
<feColorMatrix type="matrix" values="0 0 0 0 0 0 0 0 0 0 0 0 0 0 0 0 0 0 0.25 0"/>
<feBlend mode="normal" in2="shape" result="effect1_innerShadow_470_2"/>
</filter>
</defs>
</svg>
